<svg xmlns="http://www.w3.org/2000/svg" width="640" height="360" viewBox="0 0 640 360" role="img" aria-label="Private mode placeholder">
  <defs>
    <linearGradient id="bg" x1="0" y1="0" x2="1" y2="1">
      <stop offset="0" stop-color="#0f172a" />
      <stop offset="1" stop-color="#111827" />
    </linearGradient>
  </defs>
  <rect width="640" height="360" fill="url(#bg)" />
  <rect x="32" y="32" width="576" height="296" rx="24" fill="#111827" stroke="#374151" stroke-width="2" />
  <g fill="#9ca3af">
    <rect x="220" y="124" width="200" height="16" rx="8" />
    <rect x="170" y="154" width="300" height="12" rx="6" />
  </g>
  <g transform="translate(295 74)">
    <rect x="0" y="0" width="50" height="36" rx="8" fill="#334155" />
    <path d="M10 0v-9c0-10 8-18 15-18s15 8 15 18v9h-8v-9c0-5-3-9-7-9s-7 4-7 9v9z" fill="#64748b" />
  </g>
  <text x="320" y="228" text-anchor="middle" font-family="Arial, Helvetica, sans-serif" font-size="30" font-weight="700" fill="#e5e7eb">
    PRIVATE MODE
  </text>
  <text x="320" y="258" text-anchor="middle" font-family="Arial, Helvetica, sans-serif" font-size="14" fill="#9ca3af">
    Sensitive media hidden
  </text>
</svg>
